<svg width="80" height="80" viewBox="0 0 80 80" fill="none" xmlns="http://www.w3.org/2000/svg">
<g clip-path="url(#clip0_441_229)">
<path fill-rule="evenodd" clip-rule="evenodd" d="M52.086 54.8505C48.748 57.5493 41.745 58.9755 35.044 58.9755C28.342 58.9755 21.337 57.5483 18 54.8495V60.2848C18 62.9954 25 66.0166 35.044 66.0166C45.08 66.0166 52.075 62.9994 52.086 60.2907V54.8505ZM52.087 44.5225L54.0869 44.5116V44.5225C54.0869 45.7306 53.4819 46.8583 52.304 47.8908C53.7319 49.1474 54.0869 50.3803 54.0869 51.2581C54.0869 51.264 54.0859 51.269 54.0859 51.2749V60.2848C54.0859 65.2955 44.275 68.0002 35.044 68.0002C25.835 68.0002 16.05 65.3074 16.003 60.3195C16.003 60.3145 16 60.3096 16 60.3046V51.2551C16 51.2551 16.002 51.2501 16.002 51.2472C16.005 50.3694 16.361 49.1415 17.787 47.8878C16.37 46.6361 16.01 45.4152 16.001 44.5443H16.002C16.002 44.5404 16 44.5374 16 44.5334V35.4839C16 35.4809 16.002 35.478 16.002 35.475C16.005 34.5972 16.362 33.3693 17.788 32.1176C16.37 30.8649 16.01 29.643 16.001 28.7732H16.002C16.002 28.7692 16 28.7652 16 28.7613V19.7128C16 19.7098 16.002 19.7068 16.002 19.7038C16.019 14.7 25.82 12.0002 35.044 12.0002C40.255 12.0002 45.261 12.8284 48.778 14.2725L48.013 16.1054C44.73 14.7575 40.003 13.9839 35.044 13.9839C25 13.9839 18.001 17.005 18.001 19.7177C18.001 22.4294 25 25.4505 35.044 25.4505C35.315 25.4535 35.58 25.4505 35.848 25.4406L35.932 27.4223C35.636 27.4342 35.34 27.4342 35.044 27.4342C28.342 27.4342 21.337 26.0069 18 23.3082V28.7404L18.001 28.7632C18.011 29.8037 19.078 30.7122 19.972 31.2895C22.662 33.0043 27.482 34.1757 32.857 34.4187L32.766 36.4004C27.321 36.1534 22.553 35.0237 19.484 33.292C18.728 33.8573 18.001 34.622 18.001 35.4889C18.001 38.2006 25 41.2217 35.044 41.2217C36.029 41.2217 37.007 41.189 37.952 41.1235L38.091 43.1022C37.101 43.1706 36.075 43.2054 35.044 43.2054C28.342 43.2054 21.337 41.7781 18 39.0793V44.5116C18.01 45.5749 19.078 46.4824 19.972 47.0606C23.048 49.0235 28.824 50.2454 35.044 50.2454H35.484V52.2291H35.044C28.725 52.2291 22.982 51.0557 19.47 49.0731C18.718 49.6374 18.001 50.3981 18.001 51.2581C18.001 53.9697 25 56.9919 35.044 56.9919C45.08 56.9919 52.075 53.9747 52.086 51.265V51.2551C52.084 50.3932 51.364 49.6315 50.61 49.0671C50.122 49.3438 49.599 49.6106 49.004 49.8556L48.238 48.0227C48.964 47.7242 49.594 47.4018 50.111 47.0626C51.013 46.4744 52.087 45.555 52.087 44.5225ZM60.6529 30.0169H55.049C54.7179 30.0169 54.407 29.8543 54.222 29.5825C54.035 29.3107 53.9969 28.9646 54.1189 28.6601L57.5279 20.1383H44.619L38.619 32.0403H45.001C45.32 32.0403 45.62 32.192 45.809 32.4469C45.996 32.7028 46.051 33.0311 45.954 33.3336L40.258 51.0895L60.6529 30.0169ZM63.7219 29.7124L38.723 55.5398C38.528 55.7402 38.266 55.8443 38.001 55.8443C37.825 55.8443 37.648 55.7997 37.49 55.7055C37.09 55.4694 36.907 54.9923 37.048 54.552L43.634 34.0239H37.001C36.654 34.0239 36.333 33.8464 36.15 33.5538C35.968 33.2612 35.951 32.8962 36.107 32.5888L43.107 18.7031C43.276 18.3668 43.622 18.1546 44.001 18.1546H59.0009C59.3319 18.1546 59.6429 18.3182 59.8279 18.589C60.0149 18.8618 60.0529 19.2069 59.9309 19.5124L56.5219 28.0333H62.9999C63.3999 28.0333 63.7629 28.2713 63.9199 28.6363C64.0769 29.0023 63.9989 29.4258 63.7219 29.7124ZM19.455 60.6745C20.872 61.473 22.656 62.1445 24.757 62.6681L25.245 60.744C23.346 60.2709 21.686 59.65 20.443 58.9497L19.455 60.6745ZM24.757 46.7988L25.245 44.8756C23.346 44.4015 21.686 43.7806 20.443 43.0804L19.455 44.8052C20.872 45.6036 22.655 46.2751 24.757 46.7988ZM19.455 28.9358L20.443 27.211C21.684 27.9113 23.345 28.5312 25.245 29.0062L24.757 30.9294C22.653 30.4047 20.87 29.7333 19.455 28.9358Z" fill="black"/>
</g>
<defs>
<clipPath id="clip0_441_229">
<rect width="80" height="80" fill="white" transform="translate(0 0.000244141)"/>
</clipPath>
</defs>
</svg>
