<svg width="80" height="80" viewBox="0 0 80 80" fill="none" xmlns="http://www.w3.org/2000/svg">
<path fill-rule="evenodd" clip-rule="evenodd" d="M27 53.0002H52V28.0002H27V53.0002ZM54 28.0002H58V30.0002H54V34.0002H58V36.0002H54V39.0002H58V41.0002H54V45.0002H58V47.0002H54V51.0002H58V53.0002H54V53.1362C54 54.1642 53.164 55.0002 52.136 55.0002H52V59.0002H50V55.0002H46V59.0002H44V55.0002H41V59.0002H39V55.0002H35V59.0002H33V55.0002H29V59.0002H27V55.0002H26.864C25.836 55.0002 25 54.1642 25 53.1362V53.0002H22V51.0002H25V47.0002H22V45.0002H25V41.0002H22V39.0002H25V36.0002H22V34.0002H25V30.0002H22V28.0002H25V27.8642C25 26.8362 25.836 26.0002 26.864 26.0002H27V22.0002H29V26.0002H33V22.0002H35V26.0002H39V22.0002H41V26.0002H44V22.0002H46V26.0002H50V22.0002H52V26.0002H52.136C53.164 26.0002 54 26.8362 54 27.8642V28.0002ZM41 65.8762C41 65.9442 40.944 66.0002 40.876 66.0002H14.124C14.056 66.0002 14 65.9442 14 65.8762V39.1242C14 39.0562 14.056 39.0002 14.124 39.0002H20V37.0002H14.124C12.953 37.0002 12 37.9532 12 39.1242V65.8762C12 67.0472 12.953 68.0002 14.124 68.0002H40.876C42.047 68.0002 43 67.0472 43 65.8762V61.0002H41V65.8762ZM68 14.1242V40.8762C68 42.0472 67.047 43.0002 65.876 43.0002H60V41.0002H65.876C65.944 41.0002 66 40.9442 66 40.8762V14.1242C66 14.0562 65.944 14.0002 65.876 14.0002H39.124C39.056 14.0002 39 14.0562 39 14.1242V20.0002H37V14.1242C37 12.9532 37.953 12.0002 39.124 12.0002H65.876C67.047 12.0002 68 12.9532 68 14.1242Z" fill="black"/>
</svg>
