<svg width="71" height="71" viewBox="0 0 71 71" fill="none" xmlns="http://www.w3.org/2000/svg">
<path fill-rule="evenodd" clip-rule="evenodd" d="M53.9919 38.0674L54.3327 35.6676C57.4753 37.55 57.5161 38.3275 57.5153 38.3488C57.5099 38.3532 56.9739 38.8005 53.9919 38.0674ZM52.2675 37.5882C46.836 35.9445 39.2718 32.4744 36.2108 31.0278C36.2108 31.0154 36.2144 31.0038 36.2144 30.9914C36.2144 29.8155 35.2576 28.8587 34.0808 28.8587C32.9058 28.8587 31.949 29.8155 31.949 30.9914C31.949 32.1673 32.9058 33.1241 34.0808 33.1241C34.5973 33.1241 35.0659 32.9315 35.436 32.6253C39.0375 34.3302 46.5431 37.7497 52.0145 39.365L49.8508 54.6353C49.8446 54.677 49.8419 54.7187 49.8419 54.7604C49.8419 56.105 43.8895 58.5749 34.1633 58.5749C24.3343 58.5749 18.3188 56.105 18.3188 54.7604C18.3188 54.7196 18.3161 54.6797 18.3108 54.6397L13.7899 21.6185C17.7029 24.3121 26.119 25.7374 34.1687 25.7374C42.2059 25.7374 50.6078 24.3174 54.5288 21.6318L52.2675 37.5882ZM13.3124 18.1741C13.3763 17.0062 20.0876 12.4249 34.1687 12.4249C48.248 12.4249 54.9601 17.0053 55.0249 18.1741V18.5726C54.2528 21.1916 45.5553 23.9624 34.1687 23.9624C22.7625 23.9624 14.0606 21.1828 13.3124 18.5602V18.1741ZM56.7999 18.1937C56.7999 15.1185 47.9835 10.6499 34.1687 10.6499C20.3538 10.6499 11.5374 15.1185 11.5374 18.1937L11.6208 18.8628L16.5447 54.8279C16.6627 58.85 27.3891 60.3499 34.1633 60.3499C42.5697 60.3499 51.5007 58.4169 51.616 54.8305L53.7425 39.8345C54.9255 40.1176 55.8991 40.2622 56.681 40.2622C57.7309 40.2622 58.4409 40.0057 58.8713 39.4928C59.2246 39.0721 59.3595 38.5627 59.2583 38.0204C59.0284 36.7921 57.5703 35.468 54.6007 33.7737L56.7094 18.8974L56.7999 18.1937Z" fill="black"/>
</svg>
