<svg width="59" height="59" viewBox="0 0 59 59" fill="none" xmlns="http://www.w3.org/2000/svg">
<path d="M12.2917 29.5002V44.2502C12.2917 44.2502 12.2917 51.6252 29.5 51.6252C46.7083 51.6252 46.7083 44.2502 46.7083 44.2502V29.5002" stroke="black" stroke-width="1.8"/>
<path d="M12.2917 14.7502V29.5002C12.2917 29.5002 12.2917 36.8752 29.5 36.8752C46.7083 36.8752 46.7083 29.5002 46.7083 29.5002V14.7502" stroke="black" stroke-width="1.8"/>
<path d="M29.5 7.37524C46.7083 7.37524 46.7083 14.7502 46.7083 14.7502C46.7083 14.7502 46.7083 22.1252 29.5 22.1252C12.2917 22.1252 12.2917 14.7502 12.2917 14.7502C12.2917 14.7502 12.2917 7.37524 29.5 7.37524Z" stroke="black" stroke-width="1.8"/>
<rect x="27.75" y="40.7502" width="27.5" height="16.5" rx="1.25" fill="white" stroke="black" stroke-width="1.5"/>
<path d="M33.874 53.1562C33.302 53.1562 32.7343 53.0522 32.171 52.8442C31.6163 52.6362 31.1093 52.3329 30.65 51.9342L31.755 50.6212C32.0757 50.8812 32.4267 51.0936 32.808 51.2582C33.198 51.4229 33.5967 51.5052 34.004 51.5052C34.4113 51.5052 34.7103 51.4359 34.901 51.2972C35.1003 51.1586 35.2 50.9809 35.2 50.7642C35.2 50.5649 35.148 50.4089 35.044 50.2962C34.94 50.1749 34.7883 50.0709 34.589 49.9842C34.3897 49.8889 34.1557 49.7849 33.887 49.6722L32.795 49.2042C32.483 49.0829 32.1883 48.9226 31.911 48.7232C31.6337 48.5152 31.4083 48.2639 31.235 47.9692C31.0703 47.6659 30.988 47.3062 30.988 46.8902C30.988 46.4222 31.118 46.0019 31.378 45.6292C31.6467 45.2479 32.0107 44.9446 32.47 44.7192C32.938 44.4852 33.4797 44.3682 34.095 44.3682C34.6063 44.3682 35.109 44.4636 35.603 44.6542C36.097 44.8449 36.5347 45.1222 36.916 45.4862L35.941 46.6952C35.6463 46.4786 35.3517 46.3139 35.057 46.2012C34.7623 46.0799 34.407 46.0192 33.991 46.0192C33.679 46.0192 33.4233 46.0842 33.224 46.2142C33.0247 46.3442 32.925 46.5349 32.925 46.7862C32.925 46.9509 32.9857 47.0896 33.107 47.2022C33.2283 47.3149 33.393 47.4146 33.601 47.5012C33.809 47.5879 34.0473 47.6832 34.316 47.7872L35.343 48.2292C35.7243 48.3679 36.0493 48.5412 36.318 48.7492C36.5867 48.9486 36.7947 49.1956 36.942 49.4902C37.0893 49.7849 37.163 50.1316 37.163 50.5302C37.163 50.9982 37.033 51.4316 36.773 51.8302C36.5217 52.2289 36.149 52.5496 35.655 52.7922C35.1697 53.0349 34.576 53.1562 33.874 53.1562ZM41.6949 53.1562C41.0189 53.1562 40.4253 52.9872 39.9139 52.6492C39.4026 52.3112 39.0039 51.8172 38.7179 51.1672C38.4319 50.5086 38.2889 49.6939 38.2889 48.7232C38.2889 47.7786 38.4319 46.9856 38.7179 46.3442C39.0039 45.6942 39.4026 45.2046 39.9139 44.8752C40.4253 44.5372 41.0189 44.3682 41.6949 44.3682C42.3709 44.3682 42.9646 44.5372 43.4759 44.8752C43.9873 45.2046 44.3859 45.6942 44.6719 46.3442C44.9579 46.9856 45.1009 47.7786 45.1009 48.7232C45.1009 49.6939 44.9579 50.5086 44.6719 51.1672C44.3859 51.8172 43.9873 52.3112 43.4759 52.6492C42.9646 52.9872 42.3709 53.1562 41.6949 53.1562ZM41.6949 51.5962C41.9896 51.5962 42.2453 51.4922 42.4619 51.2842C42.6786 51.0762 42.8433 50.7642 42.9559 50.3482C43.0773 49.9236 43.1379 49.3819 43.1379 48.7232C43.1379 48.1339 43.0773 47.6399 42.9559 47.2412C42.8433 46.8426 42.6786 46.5392 42.4619 46.3312C42.2453 46.1232 41.9896 46.0192 41.6949 46.0192C41.4003 46.0192 41.1446 46.1232 40.9279 46.3312C40.7113 46.5392 40.5423 46.8426 40.4209 47.2412C40.3083 47.6399 40.2519 48.1339 40.2519 48.7232C40.2519 49.3819 40.3083 49.9236 40.4209 50.3482C40.5423 50.7642 40.7113 51.0762 40.9279 51.2842C41.1446 51.4922 41.4003 51.5962 41.6949 51.5962ZM44.1259 55.3142C43.2853 55.3142 42.5789 55.0932 42.0069 54.6512C41.4436 54.2092 41.0319 53.6416 40.7719 52.9482L42.7089 52.7532C42.7956 53.0132 42.9213 53.2169 43.0859 53.3642C43.2593 53.5202 43.4543 53.6286 43.6709 53.6892C43.8963 53.7499 44.1259 53.7802 44.3599 53.7802C44.4899 53.7802 44.6113 53.7629 44.7239 53.7282C44.8453 53.6936 44.9493 53.6546 45.0359 53.6112L45.3739 55.0412C45.2353 55.1192 45.0619 55.1842 44.8539 55.2362C44.6459 55.2882 44.4033 55.3142 44.1259 55.3142ZM46.9808 53.0002V44.5242H48.8918V51.3882H52.6618V53.0002H46.9808Z" fill="black"/>
</svg>
