<svg width="21" height="21" viewBox="0 0 21 21" fill="none" xmlns="http://www.w3.org/2000/svg">
<mask id="mask0_399_162" style="mask-type:alpha" maskUnits="userSpaceOnUse" x="0" y="0" width="21" height="21">
<path fill-rule="evenodd" clip-rule="evenodd" d="M14.8915 20.8024C15.2222 20.9313 15.5994 20.923 15.9332 20.7624L20.2568 18.682C20.7111 18.4634 21 18.0036 21 17.4992V3.39264C21 2.88822 20.7111 2.42842 20.2568 2.20981L15.9332 0.129335C15.4951 -0.0814807 14.9824 -0.029844 14.5978 0.249706C14.5429 0.28964 14.4906 0.334227 14.4415 0.383363L6.16457 7.93456L2.55931 5.19786C2.22369 4.94311 1.75426 4.96399 1.44256 5.24753L0.286236 6.29938C-0.0950358 6.64619 -0.0954728 7.24601 0.285291 7.59342L3.41189 10.4459L0.285291 13.2983C-0.0954728 13.6457 -0.0950358 14.2455 0.286236 14.5924L1.44256 15.6442C1.75426 15.9277 2.22369 15.9486 2.55931 15.6939L6.16457 12.9572L14.4415 20.5084C14.5724 20.6394 14.7262 20.738 14.8915 20.8024ZM15.7532 5.67862L9.47291 10.4459L15.7532 15.2131V5.67862Z" fill="white"/>
</mask>
<g mask="url(#mask0_399_162)">
<path d="M20.2569 2.21324L15.9299 0.129904C15.4291 -0.111243 14.8305 -0.00952192 14.4375 0.383539L0.272694 13.2985C-0.108303 13.6459 -0.107865 14.2457 0.273639 14.5925L1.43066 15.6444C1.74256 15.9279 2.21228 15.9488 2.54809 15.694L19.6058 2.75372C20.1781 2.31959 21 2.72774 21 3.44605V3.39582C21 2.8916 20.7112 2.43198 20.2569 2.21324Z" fill="#0065A9"/>
<g filter="url(#filter0_d_399_162)">
<path d="M20.2569 18.6787L15.9299 20.7621C15.4291 21.0032 14.8305 20.9015 14.4375 20.5084L0.272694 7.59347C-0.108303 7.24609 -0.107865 6.64624 0.273639 6.29943L1.43066 5.24758C1.74256 4.96404 2.21228 4.94316 2.54809 5.19791L19.6058 18.1382C20.1781 18.5724 21 18.1642 21 17.4459V17.4962C21 18.0004 20.7112 18.46 20.2569 18.6787Z" fill="#007ACC"/>
</g>
<g filter="url(#filter1_d_399_162)">
<path d="M15.9301 20.7624C15.4291 21.0034 14.8306 20.9015 14.4375 20.5084C14.9218 20.9927 15.75 20.6497 15.75 19.9647V0.92702C15.75 0.242054 14.9218 -0.10098 14.4375 0.383363C14.8306 -0.0097333 15.4291 -0.111598 15.9301 0.129335L20.2563 2.20982C20.7109 2.42843 21 2.88822 21 3.39264V17.4992C21 18.0036 20.7109 18.4634 20.2563 18.682L15.9301 20.7624Z" fill="#1F9CF0"/>
</g>
<g style="mix-blend-mode:overlay" opacity="0.25">
<path fill-rule="evenodd" clip-rule="evenodd" d="M14.8787 20.8026C15.2095 20.9314 15.5866 20.9232 15.9204 20.7625L20.244 18.6821C20.6983 18.4635 20.9872 18.0037 20.9872 17.4993V3.39277C20.9872 2.88833 20.6983 2.42854 20.244 2.20993L15.9204 0.129457C15.4823 -0.0813585 14.9696 -0.0297218 14.5851 0.249826C14.5301 0.289762 14.4778 0.334349 14.4287 0.383485L6.1518 7.93468L2.54654 5.198C2.21094 4.94323 1.74149 4.96412 1.42979 5.24764L0.273465 6.29949C-0.107808 6.64633 -0.108245 7.24615 0.27252 7.59353L3.39912 10.446L0.27252 13.2985C-0.108245 13.6458 -0.107808 14.2457 0.273465 14.5925L1.42979 15.6443C1.74149 15.9279 2.21094 15.9487 2.54654 15.694L6.1518 12.9573L14.4287 20.5085C14.5596 20.6395 14.7134 20.7382 14.8787 20.8026ZM15.7404 5.67875L9.46014 10.446L15.7404 15.2132V5.67875Z" fill="url(#paint0_linear_399_162)"/>
</g>
</g>
<defs>
<filter id="filter0_d_399_162" x="-8.34611" y="-3.31332" width="37.6794" height="32.5383" filterUnits="userSpaceOnUse" color-interpolation-filters="sRGB">
<feFlood flood-opacity="0" result="BackgroundImageFix"/>
<feColorMatrix in="SourceAlpha" type="matrix" values="0 0 0 0 0 0 0 0 0 0 0 0 0 0 0 0 0 0 127 0" result="hardAlpha"/>
<feOffset/>
<feGaussianBlur stdDeviation="4.16667"/>
<feColorMatrix type="matrix" values="0 0 0 0 0 0 0 0 0 0 0 0 0 0 0 0 0 0 0.25 0"/>
<feBlend mode="overlay" in2="BackgroundImageFix" result="effect1_dropShadow_399_162"/>
<feBlend mode="normal" in="SourceGraphic" in2="effect1_dropShadow_399_162" result="shape"/>
</filter>
<filter id="filter1_d_399_162" x="6.10416" y="-8.33334" width="23.2292" height="37.5584" filterUnits="userSpaceOnUse" color-interpolation-filters="sRGB">
<feFlood flood-opacity="0" result="BackgroundImageFix"/>
<feColorMatrix in="SourceAlpha" type="matrix" values="0 0 0 0 0 0 0 0 0 0 0 0 0 0 0 0 0 0 127 0" result="hardAlpha"/>
<feOffset/>
<feGaussianBlur stdDeviation="4.16667"/>
<feColorMatrix type="matrix" values="0 0 0 0 0 0 0 0 0 0 0 0 0 0 0 0 0 0 0.25 0"/>
<feBlend mode="overlay" in2="BackgroundImageFix" result="effect1_dropShadow_399_162"/>
<feBlend mode="normal" in="SourceGraphic" in2="effect1_dropShadow_399_162" result="shape"/>
</filter>
<linearGradient id="paint0_linear_399_162" x1="10.4872" y1="0.000121951" x2="10.4872" y2="20.8919" gradientUnits="userSpaceOnUse">
<stop stop-color="white"/>
<stop offset="1" stop-color="white" stop-opacity="0"/>
</linearGradient>
</defs>
</svg>
